{
    "asset" : {
        "generator" : "Khronos glTF Blender I/O v3.2.43",
        "version" : "2.0"
    },
    "scene" : 0,
    "scenes" : [
        {
            "name" : "Scene",
            "nodes" : [
                0,
                1,
                2,
                3,
                4,
                5,
                6,
                7,
                8,
                9
            ]
        }
    ],
    "nodes" : [
        {
            "name" : "Empty",
            "rotation" : [
                0.5,
                0.5,
                -0.5,
                0.5
            ]
        },
        {
            "mesh" : 0,
            "name" : "Cylinder",
            "rotation" : [
                -0.04502800479531288,
                -0.14246322214603424,
                0.09780061990022659,
                0.9839267134666443
            ],
            "scale" : [
                0.1519356667995453,
                0.1519356667995453,
                0.1519356667995453
            ],
            "translation" : [
                0.1902950406074524,
                -0.0380319207906723,
                0.8983631134033203
            ]
        },
        {
            "mesh" : 1,
            "name" : "Cylinder.001",
            "rotation" : [
                -0.051169805228710175,
                0.11280952394008636,
                -0.06471581012010574,
                0.9901856184005737
            ],
            "scale" : [
                0.1519356667995453,
                0.1519356667995453,
                0.1519356667995453
            ],
            "translation" : [
                -0.25244224071502686,
                -0.04438544064760208,
                0.8996975421905518
            ]
        },
        {
            "mesh" : 2,
            "name" : "Cylinder.004",
            "rotation" : [
                0.3205144703388214,
                0,
                0,
                0.9472436308860779
            ],
            "scale" : [
                0.1426384299993515,
                0.1426384299993515,
                0.1426384299993515
            ],
            "translation" : [
                -0.0034019704908132553,
                0.4202497899532318,
                -1.7294578552246094
            ]
        },
        {
            "mesh" : 3,
            "name" : "Cylinder.005",
            "rotation" : [
                -0.15206345915794373,
                0,
                0,
                0.9883707761764526
            ],
            "scale" : [
                0.03283271566033363,
                0.03283271566033363,
                0.03283271566033363
            ],
            "translation" : [
                -0.0011127591133117676,
                1.3281279802322388,
                2.057748794555664
            ]
        },
        {
            "mesh" : 4,
            "name" : "Cylinder.006",
            "rotation" : [
                0.8949061632156372,
                0,
                0,
                0.4462543725967407
            ],
            "scale" : [
                -0.25162479281425476,
                -0.25162479281425476,
                -0.25162479281425476
            ],
            "translation" : [
                0.2851404547691345,
                0.19191883504390717,
                -0.6435534954071045
            ]
        },
        {
            "mesh" : 5,
            "name" : "Cylinder.002",
            "rotation" : [
                0.8949061632156372,
                0,
                0,
                0.4462543725967407
            ],
            "scale" : [
                -0.25162479281425476,
                -0.25162479281425476,
                -0.25162479281425476
            ],
            "translation" : [
                -0.2623847424983978,
                0.21814285218715668,
                -0.6382843255996704
            ]
        },
        {
            "mesh" : 6,
            "name" : "Cylinder.003",
            "rotation" : [
                0.8110940456390381,
                0,
                0,
                0.584915816783905
            ],
            "scale" : [
                0.4638233780860901,
                0.4638233780860901,
                0.4638233780860901
            ],
            "translation" : [
                -0.019630521535873413,
                0.38079339265823364,
                0.15967440605163574
            ]
        },
        {
            "mesh" : 7,
            "name" : "Cylinder.007",
            "rotation" : [
                0.9762915968894958,
                -0.1589738428592682,
                -0.08566225320100784,
                0.11934839934110641
            ],
            "scale" : [
                -0.12522263824939728,
                -0.12522265315055847,
                -0.12522265315055847
            ],
            "translation" : [
                0.11958949267864227,
                1.6505861282348633,
                1.2839897871017456
            ]
        },
        {
            "mesh" : 8,
            "name" : "Cylinder.008",
            "rotation" : [
                0.9753684997558594,
                0.11845713108778,
                -0.12071479111909866,
                0.14160576462745667
            ],
            "scale" : [
                -0.12522263824939728,
                -0.12522265315055847,
                -0.12522266805171967
            ],
            "translation" : [
                -0.1710033267736435,
                1.6727006435394287,
                1.272336721420288
            ]
        }
    ],
    "materials" : [
        {
            "doubleSided" : true,
            "name" : "Material",
            "pbrMetallicRoughness" : {
                "baseColorTexture" : {
                    "index" : 0
                },
                "metallicFactor" : 0,
                "roughnessFactor" : 0.5
            }
        }
    ],
    "meshes" : [
        {
            "name" : "Cylinder",
            "primitives" : [
                {
                    "attributes" : {
                        "POSITION" : 0,
                        "NORMAL" : 1,
                        "TEXCOORD_0" : 2
                    },
                    "indices" : 3,
                    "material" : 0
                }
            ]
        },
        {
            "name" : "Cylinder.002",
            "primitives" : [
                {
                    "attributes" : {
                        "POSITION" : 4,
                        "NORMAL" : 5,
                        "TEXCOORD_0" : 6
                    },
                    "indices" : 7
                }
            ]
        },
        {
            "name" : "Cylinder.005",
            "primitives" : [
                {
                    "attributes" : {
                        "POSITION" : 8,
                        "NORMAL" : 9,
                        "TEXCOORD_0" : 10
                    },
                    "indices" : 11,
                    "material" : 0
                }
            ]
        },
        {
            "name" : "Cylinder.006",
            "primitives" : [
                {
                    "attributes" : {
                        "POSITION" : 12,
                        "NORMAL" : 13,
                        "TEXCOORD_0" : 14
                    },
                    "indices" : 15,
                    "material" : 0
                }
            ]
        },
        {
            "name" : "Cylinder.007",
            "primitives" : [
                {
                    "attributes" : {
                        "POSITION" : 16,
                        "NORMAL" : 17,
                        "TEXCOORD_0" : 18
                    },
                    "indices" : 19,
                    "material" : 0
                }
            ]
        },
        {
            "name" : "Cylinder.008",
            "primitives" : [
                {
                    "attributes" : {
                        "POSITION" : 20,
                        "NORMAL" : 21,
                        "TEXCOORD_0" : 22
                    },
                    "indices" : 19
                }
            ]
        },
        {
            "name" : "Cylinder.009",
            "primitives" : [
                {
                    "attributes" : {
                        "POSITION" : 23,
                        "NORMAL" : 24,
                        "TEXCOORD_0" : 25
                    },
                    "indices" : 26,
                    "material" : 0
                }
            ]
        },
        {
            "name" : "Cylinder.010",
            "primitives" : [
                {
                    "attributes" : {
                        "POSITION" : 27,
                        "NORMAL" : 28,
                        "TEXCOORD_0" : 29
                    },
                    "indices" : 30,
                    "material" : 0
                }
            ]
        },
        {
            "name" : "Cylinder.012",
            "primitives" : [
                {
                    "attributes" : {
                        "POSITION" : 31,
                        "NORMAL" : 32,
                        "TEXCOORD_0" : 33
                    },
                    "indices" : 30,
                    "material" : 0
                }
            ]
        }
    ],
    "textures" : [
        {
            "sampler" : 0,
            "source" : 0
        }
    ],
    "images" : [
        {
            "bufferView" : 4,
            "mimeType" : "image/png",
            "name" : "DALL\u00b7E 2022-10-04 18.21.17 - photo-realistic full body hybrid monkey_deer_snake in profile"
        }
    ],
    "accessors" : [
        {
            "bufferView" : 0,
            "componentType" : 5126,
            "count" : 752,
            "max" : [
                1,
                2.0154919624328613,
                7.6860833168029785
            ],
            "min" : [
                -1,
                -12.83480167388916,
                -1
            ],
            "type" : "VEC3"
        },
        {
            "bufferView" : 1,
            "componentType" : 5126,
            "count" : 752,
            "type" : "VEC3"
        },
        {
            "bufferView" : 2,
            "componentType" : 5126,
            "count" : 752,
            "type" : "VEC2"
        },
        {
            "bufferView" : 3,
            "componentType" : 5123,
            "count" : 4488,
            "type" : "SCALAR"
        },
        {
            "bufferView" : 5,
            "componentType" : 5126,
            "count" : 2892,
            "max" : [
                1,
                2.155561923980713,
                7.6860833168029785
            ],
            "min" : [
                -1,
                -12.83480167388916,
                -1
            ],
            "type" : "VEC3"
        },
        {
            "bufferView" : 6,
            "componentType" : 5126,
            "count" : 2892,
            "type" : "VEC3"
        },
        {
            "bufferView" : 7,
            "componentType" : 5126,
            "count" : 2892,
            "type" : "VEC2"
        },
        {
            "bufferView" : 8,
            "componentType" : 5123,
            "count" : 4488,
            "type" : "SCALAR"
        },
        {
            "bufferView" : 9,
            "componentType" : 5126,
            "count" : 1408,
            "max" : [
                1.0000014305114746,
                3.0486879348754883,
                22.39092445373535
            ],
            "min" : [
                -1,
                -10.864617347717285,
                -1
            ],
            "type" : "VEC3"
        },
        {
            "bufferView" : 10,
            "componentType" : 5126,
            "count" : 1408,
            "type" : "VEC3"
        },
        {
            "bufferView" : 11,
            "componentType" : 5126,
            "count" : 1408,
            "type" : "VEC2"
        },
        {
            "bufferView" : 12,
            "componentType" : 5123,
            "count" : 8436,
            "type" : "SCALAR"
        },
        {
            "bufferView" : 13,
            "componentType" : 5126,
            "count" : 960,
            "max" : [
                1,
                1,
                1
            ],
            "min" : [
                -1,
                -19.27375602722168,
                -7.5349884033203125
            ],
            "type" : "VEC3"
        },
        {
            "bufferView" : 14,
            "componentType" : 5126,
            "count" : 960,
            "type" : "VEC3"
        },
        {
            "bufferView" : 15,
            "componentType" : 5126,
            "count" : 960,
            "type" : "VEC2"
        },
        {
            "bufferView" : 16,
            "componentType" : 5123,
            "count" : 1524,
            "type" : "SCALAR"
        },
        {
            "bufferView" : 17,
            "componentType" : 5126,
            "count" : 960,
            "max" : [
                1.20247483253479,
                4.066000461578369,
                1.1675565242767334
            ],
            "min" : [
                -1.2460750341415405,
                -7.242466926574707,
                -6.297112464904785
            ],
            "type" : "VEC3"
        },
        {
            "bufferView" : 18,
            "componentType" : 5126,
            "count" : 960,
            "type" : "VEC3"
        },
        {
            "bufferView" : 19,
            "componentType" : 5126,
            "count" : 960,
            "type" : "VEC2"
        },
        {
            "bufferView" : 20,
            "componentType" : 5123,
            "count" : 5736,
            "type" : "SCALAR"
        },
        {
            "bufferView" : 21,
            "componentType" : 5126,
            "count" : 960,
            "max" : [
                1.20247483253479,
                4.066000461578369,
                1.1675565242767334
            ],
            "min" : [
                -1.2460750341415405,
                -7.242466926574707,
                -6.297112464904785
            ],
            "type" : "VEC3"
        },
        {
            "bufferView" : 22,
            "componentType" : 5126,
            "count" : 960,
            "type" : "VEC3"
        },
        {
            "bufferView" : 23,
            "componentType" : 5126,
            "count" : 960,
            "type" : "VEC2"
        },
        {
            "bufferView" : 24,
            "componentType" : 5126,
            "count" : 1792,
            "max" : [
                1.092077612876892,
                3.439249277114868,
                1.1339256763458252
            ],
            "min" : [
                -1.092077612876892,
                -3.818697690963745,
                -4.111151695251465
            ],
            "type" : "VEC3"
        },
        {
            "bufferView" : 25,
            "componentType" : 5126,
            "count" : 1792,
            "type" : "VEC3"
        },
        {
            "bufferView" : 26,
            "componentType" : 5126,
            "count" : 1792,
            "type" : "VEC2"
        },
        {
            "bufferView" : 27,
            "componentType" : 5123,
            "count" : 10740,
            "type" : "SCALAR"
        },
        {
            "bufferView" : 28,
            "componentType" : 5126,
            "count" : 832,
            "max" : [
                1,
                3.6058099269866943,
                1
            ],
            "min" : [
                -1,
                -1,
                -1
            ],
            "type" : "VEC3"
        },
        {
            "bufferView" : 29,
            "componentType" : 5126,
            "count" : 832,
            "type" : "VEC3"
        },
        {
            "bufferView" : 30,
            "componentType" : 5126,
            "count" : 832,
            "type" : "VEC2"
        },
        {
            "bufferView" : 31,
            "componentType" : 5123,
            "count" : 1332,
            "type" : "SCALAR"
        },
        {
            "bufferView" : 32,
            "componentType" : 5126,
            "count" : 832,
            "max" : [
                1,
                3.6058099269866943,
                1
            ],
            "min" : [
                -1,
                -1,
                -1
            ],
            "type" : "VEC3"
        },
        {
            "bufferView" : 33,
            "componentType" : 5126,
            "count" : 832,
            "type" : "VEC3"
        },
        {
            "bufferView" : 34,
            "componentType" : 5126,
            "count" : 832,
            "type" : "VEC2"
        }
    ],
    "bufferViews" : [
        {
            "buffer" : 0,
            "byteLength" : 9024,
            "byteOffset" : 0
        },
        {
            "buffer" : 0,
            "byteLength" : 9024,
            "byteOffset" : 9024
        },
        {
            "buffer" : 0,
            "byteLength" : 6016,
            "byteOffset" : 18048
        },
        {
            "buffer" : 0,
            "byteLength" : 8976,
            "byteOffset" : 24064
        },
        {
            "buffer" : 0,
            "byteLength" : 1451425,
            "byteOffset" : 33040
        },
        {
            "buffer" : 0,
            "byteLength" : 34704,
            "byteOffset" : 1484468
        },
        {
            "buffer" : 0,
            "byteLength" : 34704,
            "byteOffset" : 1519172
        },
        {
            "buffer" : 0,
            "byteLength" : 23136,
            "byteOffset" : 1553876
        },
        {
            "buffer" : 0,
            "byteLength" : 8976,
            "byteOffset" : 1577012
        },
        {
            "buffer" : 0,
            "byteLength" : 16896,
            "byteOffset" : 1585988
        },
        {
            "buffer" : 0,
            "byteLength" : 16896,
            "byteOffset" : 1602884
        },
        {
            "buffer" : 0,
            "byteLength" : 11264,
            "byteOffset" : 1619780
        },
        {
            "buffer" : 0,
            "byteLength" : 16872,
            "byteOffset" : 1631044
        },
        {
            "buffer" : 0,
            "byteLength" : 11520,
            "byteOffset" : 1647916
        },
        {
            "buffer" : 0,
            "byteLength" : 11520,
            "byteOffset" : 1659436
        },
        {
            "buffer" : 0,
            "byteLength" : 7680,
            "byteOffset" : 1670956
        },
        {
            "buffer" : 0,
            "byteLength" : 3048,
            "byteOffset" : 1678636
        },
        {
            "buffer" : 0,
            "byteLength" : 11520,
            "byteOffset" : 1681684
        },
        {
            "buffer" : 0,
            "byteLength" : 11520,
            "byteOffset" : 1693204
        },
        {
            "buffer" : 0,
            "byteLength" : 7680,
            "byteOffset" : 1704724
        },
        {
            "buffer" : 0,
            "byteLength" : 11472,
            "byteOffset" : 1712404
        },
        {
            "buffer" : 0,
            "byteLength" : 11520,
            "byteOffset" : 1723876
        },
        {
            "buffer" : 0,
            "byteLength" : 11520,
            "byteOffset" : 1735396
        },
        {
            "buffer" : 0,
            "byteLength" : 7680,
            "byteOffset" : 1746916
        },
        {
            "buffer" : 0,
            "byteLength" : 21504,
            "byteOffset" : 1754596
        },
        {
            "buffer" : 0,
            "byteLength" : 21504,
            "byteOffset" : 1776100
        },
        {
            "buffer" : 0,
            "byteLength" : 14336,
            "byteOffset" : 1797604
        },
        {
            "buffer" : 0,
            "byteLength" : 21480,
            "byteOffset" : 1811940
        },
        {
            "buffer" : 0,
            "byteLength" : 9984,
            "byteOffset" : 1833420
        },
        {
            "buffer" : 0,
            "byteLength" : 9984,
            "byteOffset" : 1843404
        },
        {
            "buffer" : 0,
            "byteLength" : 6656,
            "byteOffset" : 1853388
        },
        {
            "buffer" : 0,
            "byteLength" : 2664,
            "byteOffset" : 1860044
        },
        {
            "buffer" : 0,
            "byteLength" : 9984,
            "byteOffset" : 1862708
        },
        {
            "buffer" : 0,
            "byteLength" : 9984,
            "byteOffset" : 1872692
        },
        {
            "buffer" : 0,
            "byteLength" : 6656,
            "byteOffset" : 1882676
        }
    ],
    "samplers" : [
        {
            "magFilter" : 9729,
            "minFilter" : 9987
        }
    ],
    "buffers" : [
        {
            "byteLength" : 1889332,
            "uri" : "data:application/octet-stream;base64,"
        }
    ]
}
